<?xml version="1.0" encoding="utf-8"?>
<!-- Generator: Adobe Illustrator 16.0.4, SVG Export Plug-In . SVG Version: 6.00 Build 0)  -->
<!DOCTYPE svg PUBLIC "-//W3C//DTD SVG 1.1//EN" "http://www.w3.org/Graphics/SVG/1.1/DTD/svg11.dtd">
<svg version="1.1" id="Ebene_1" xmlns="http://www.w3.org/2000/svg" xmlns:xlink="http://www.w3.org/1999/xlink" x="0px" y="0px"
	 width="301px" height="339px" viewBox="0 0 301 339" enable-background="new 0 0 301 339" xml:space="preserve">
<g>
	<path fill="#C73636" d="M273.249,265.604c3.889-6.75,5.833-13.299,5.833-19.647c0-4.201-5.904-8.976-17.717-14.327l-0.51-0.751
		l0.364-0.45c3.548,0.1,8.507,0.15,14.875,0.15c0.339-0.589,0.508-1.151,0.508-1.694c0-1.471-0.92-2.206-2.768-2.206h-12.76
		c-4.424,0-6.638,1.024-6.638,3.076c0,0.551,1.144,1.798,3.431,3.75c1.166,1.048,3.449,2.472,6.853,4.273
		c3.254,1.752,5.516,3.2,6.78,4.351c2.089,1.949,3.135,4.174,3.135,6.677c0,7.05-3.985,14.327-11.957,21.823
		c-0.341,0.704-1.762,1.69-4.267,2.965c-2.504,1.274-3.756,2.214-3.756,2.814c0,0.797,0.634,1.197,1.898,1.197
		C263.115,277.605,268.681,273.608,273.249,265.604 M249.555,230.66c0-2.453-0.728-3.682-2.179-3.682
		c-1.506,0-2.257,1.525-2.257,4.574c-7.122-1.898-11.506-3.122-13.153-3.673l-2.836-0.901c-1.548,0-2.322,0.751-2.322,2.253v45.521
		c0,2.053,0.634,3.08,1.902,3.08c1.598,0,2.398-1.378,2.398-4.131v-33.809v-7.289v-0.149c0.097-0.251,0.192-0.485,0.291-0.713
		c0.099-0.227,0.389-0.361,0.876-0.411c8.651,2.094,12.979,3.719,12.979,4.866l-0.146,38.563c-0.051,2.049,0.608,3.072,1.967,3.072
		c1.702,0,2.528-1.528,2.479-4.585V230.66z M198.42,270.182l-0.803-0.535c4.272-14.334,7.43-25.084,9.47-32.253l7.905,32.788H198.42
		z M218.493,266.955c-2.868-12.351-5.053-21.426-6.561-27.225c-0.391-1.802-0.779-3.604-1.167-5.401
		c-0.486-2.299-1.021-4.051-1.604-5.252c-0.438-0.997-1.168-1.498-2.187-1.498c-0.828,0-1.413,0.424-1.752,1.274
		c-1.457,4.352-2.456,7.678-2.989,9.977c-3.498,12.802-6.099,22.424-7.801,28.876c-0.145,0.351-0.779,1.976-1.896,4.875
		c-0.922,2.452-1.386,3.927-1.386,4.424c0,0.404,0.208,0.773,0.62,1.128c0.413,0.347,0.839,0.523,1.277,0.523
		c1.458,0,2.453-0.9,2.988-2.699c0.535-1.802,1.653-2.702,3.354-2.702c1.702,0,4.108,0.026,7.219,0.077
		c3.304,0.1,5.688,0.149,7.146,0.149c1.312,0,2.222,0.801,2.733,2.399c0.511,1.602,1.423,2.398,2.733,2.398
		c0.584,0,1.142-0.186,1.679-0.559c0.534-0.377,0.802-0.812,0.802-1.312C219.612,270.355,218.542,267.206,218.493,266.955
		 M186.997,230.66c0-2.453-0.728-3.682-2.188-3.682c-1.509,0-2.26,1.252-2.26,3.758v44.016c0,2.053,0.654,3.08,1.968,3.08
		c1.651,0,2.479-1.528,2.479-4.585V230.66z M162.929,247.531c2.592-2.103,4.057-3.304,4.392-3.604
		c2.062-2.099,4.125-4.174,6.189-6.227v33.894c0,2.003,0.048,3.258,0.143,3.758c0.335,1.652,1.101,2.479,2.296,2.479
		c1.338,0,2.008-1.027,2.008-3.08v-44.016c0-2.506-0.754-3.758-2.26-3.758c-1.509,0-2.26,1.375-2.26,4.124
		c-1.702,1.852-3.427,3.727-5.179,5.629c-2.089,2.249-3.985,3.974-5.687,5.175c-6.025-4.551-9.722-8.151-11.082-10.804
		c0-2.749-0.754-4.124-2.259-4.124c-1.509,0-2.262,1.252-2.262,3.758v44.016c0,2.053,0.656,3.08,1.969,3.08
		c1.652,0,2.479-1.528,2.479-4.585v-35.546C155.687,241.656,159.523,244.929,162.929,247.531 M141.138,275.584
		c-2.821-1.552-5.469-3.326-7.948-5.329c-2.869-2.349-5.518-7.35-7.949-15c-2.186-6.85-3.279-12.475-3.279-16.876
		c0-2.402,1.531-3.6,4.592-3.6c0.051,0,0.804,0.035,2.263,0.111c1.458,0.073,2.72,0.116,3.79,0.116c4.472,0,6.708-0.628,6.708-1.879
		c0-0.551-0.291-0.925-0.875-1.124l-15.311,0.227c-0.292,0-0.438-0.162-0.438-0.489c0-0.785,0.85-1.247,2.551-1.386h3.794h1.603
		h2.698c4.325,0,6.49-0.601,6.49-1.802c0-1.052-0.829-1.552-2.48-1.502l-16.843,0.228c-0.729,0-1.36,0.289-1.895,0.862
		c-0.536,0.573-0.803,1.189-0.803,1.837c0,8.701,1.264,17.703,3.791,27.001c3.84,13.8,9.455,20.703,16.843,20.703h2.407l0.511-0.828
		L141.138,275.584z M112.628,230.736c0-2.506-0.753-3.758-2.259-3.758c-1.459,0-2.188,1.375-2.188,4.124
		c-3.89,0.45-5.882,0.674-5.979,0.674h-3.864c-0.146,0-2.141-0.224-5.979-0.674c0-2.749-0.756-4.124-2.261-4.124
		c-1.507,0-2.259,1.252-2.259,3.758v44.016c0,2.053,0.656,3.08,1.967,3.08c1.652,0,2.479-1.528,2.479-4.585v-35.538
		c0-1.15,1.084-2.002,3.251-2.557c1.444-0.396,3.035-0.6,4.769-0.6c1.735,0,3.348,0.203,4.842,0.6
		c2.119,0.555,3.18,1.406,3.18,2.557v33.886c0,2.003,0.047,3.258,0.142,3.758c0.28,1.652,1.01,2.479,2.186,2.479
		c1.315,0,1.974-1.027,1.974-3.08V230.736z M77.048,263.791c-1.751,6.461-4.716,9.69-8.895,9.69
		c-7.195,0-10.792-7.338-10.792-22.012c0-5.563,0.56-10.168,1.678-13.826c1.797-5.96,4.908-8.939,9.332-8.939
		c2.965,0,5.518,2.856,7.656,8.562c1.751,4.608,2.626,8.667,2.626,12.175C78.653,255.101,78.117,259.883,77.048,263.791
		 M79.745,234.702c-2.673-6.198-6.925-9.298-12.759-9.298c-5.25,0-9.089,3.55-11.52,10.649c-1.704,4.901-2.554,10.453-2.554,16.652
		c0,6.198,0.923,11.424,2.772,15.674c2.575,6.003,6.732,9.002,12.468,9.002c5.396,0,9.333-3.399,11.811-10.203
		c1.701-4.597,2.553-10.049,2.553-16.348C82.517,244.428,81.592,239.053,79.745,234.702 M40.447,260.58
		c-2.626,8.852-6.029,13.275-10.208,13.275c-1.507,0-2.261-1.197-2.261-3.601v-1.725v-1.498v-35.479
		c3.645-4.051,7.753-7.1,12.323-9.152c0.681,1.552,1.386,4.701,2.114,9.453c0.729,4.501,1.093,7.8,1.093,9.902
		C43.508,247.555,42.487,253.83,40.447,260.58 M29.139,222.705c-0.774,0-1.161-0.701-1.161-2.103c0-2.698,0.604-4.551,1.813-5.548
		c1.016-0.801,2.9-1.201,5.658-1.201c2.756,0,4.014-0.027,3.771-0.077c1.936,0.15,2.854,0.65,2.756,1.502
		C34.385,220.229,30.105,222.705,29.139,222.705 M44.603,218.658c0.776-0.75,1.555-1.501,2.334-2.252
		c0.971-1.001,1.457-1.879,1.457-2.63c0-1.848-0.708-3.072-2.119-3.673c-0.831-0.351-2.34-0.501-4.535-0.451l-16.307,0.074
		c-1.707,0-2.559,1.751-2.559,5.259v58.716c0,2.953,1.386,4.432,4.155,4.432c7.438,0,13.077-4.281,16.916-12.845
		c2.965-6.557,4.447-14.215,4.447-22.974C48.393,234.302,47.13,226.417,44.603,218.658"/>
	<path fill="#C73636" d="M246.604,182.424c-7.05-3.869-13.67-8.309-19.869-13.311c-7.173-5.876-13.793-18.377-19.868-37.503
		c-5.47-17.124-8.203-31.188-8.203-42.189c0-6,3.827-9.002,11.483-9.002c0.121,0,2.004,0.094,5.65,0.281
		c3.646,0.188,6.803,0.281,9.479,0.281c11.18,0,16.771-1.561,16.771-4.688c0-1.375-0.731-2.31-2.19-2.811l-38.279,0.56
		c-0.728,0-1.093-0.404-1.093-1.215c0-1.965,2.125-3.123,6.382-3.473h9.477h4.011h6.747c10.812,0,16.221-1.5,16.221-4.499
		c0-2.626-2.067-3.875-6.198-3.75l-42.106,0.562c-1.821,0-3.403,0.72-4.739,2.156c-1.34,1.44-2.006,2.97-2.006,4.593
		c0,21.751,3.159,44.254,9.479,67.505c9.599,34.502,23.635,51.752,42.106,51.752h6.018l1.274-2.06L246.604,182.424z M175.333,70.309
		c0-6.258-1.885-9.389-5.65-9.389c-3.646,0-5.468,3.437-5.468,10.311c-9.726,1.126-14.707,1.688-14.949,1.688h-9.659
		c-0.365,0-5.35-0.562-14.948-1.688c0-6.875-1.885-10.311-5.649-10.311c-3.77,0-5.652,3.13-5.652,9.389v110.044
		c0,5.133,1.643,7.696,4.923,7.696c4.13,0,6.197-3.815,6.197-11.458V87.747c0-2.88,2.709-5.009,8.128-6.388
		c3.612-1.001,7.588-1.501,11.923-1.501s8.368,0.5,12.103,1.501c5.296,1.378,7.949,3.507,7.949,6.388v84.717
		c0,5.009,0.117,8.139,0.353,9.387c0.704,4.135,2.525,6.198,5.465,6.198c3.29,0,4.937-2.563,4.937-7.696V70.309z M101.237,19.815
		c-1.522-0.972-3.19-1.463-5.013-1.463l-32.082,0.939l-32.265-0.939c-1.821-0.121-3.403,0.314-4.739,1.313
		c-1.704,1.003-2.551,2.377-2.551,4.127c0,5.75,5.952,8.625,17.862,8.625h7.84c3.4,0.125,5.527,1.186,6.379,3.178l-0.549,146.467
		c0,3.619,2.372,5.429,7.111,5.429c3.522,0,5.285-2.438,5.285-7.304v-18.542c0-12.236-0.123-32.403-0.365-60.494
		c-0.123-26.721-0.181-46.944-0.181-60.68c0-2.749,0.15-4.466,0.456-5.152c0.301-0.685,1.486-1.653,3.555-2.903h4.648h6.471
		c13.608,0,20.416-2.859,20.416-8.584C103.517,22.127,102.755,20.787,101.237,19.815"/>
	<path fill="#C73636" d="M158.594,294.111c0-2.745-4.969-1.729-7.613-1.729c-2.65,0-7.618-1.017-7.618,1.729
		s7.618,10.588,7.618,10.588S158.594,296.856,158.594,294.111 M161.014,292.694c0,3.365-10.033,12.986-10.033,12.986
		s-10.037-9.621-10.037-12.986c0-3.369,6.547-2.121,10.037-2.121C154.467,290.573,161.014,289.325,161.014,292.694"/>
	<path fill="#C73636" d="M150.959,293.592l-0.44,7.677l-5.112-6.414c-0.069,1.031,5.553,7.808,5.553,7.808s5.621-6.776,5.552-7.808
		l-5.112,6.414L150.959,293.592z"/>
	<path fill="#C73636" d="M162.893,314.722c2.608,0,1.644-5.232,1.644-8.021c0-2.787,0.965-8.02-1.644-8.02
		c-2.604,0-10.054,8.02-10.054,8.02S160.288,314.722,162.893,314.722 M164.238,317.271c-3.195,0-12.329-10.569-12.329-10.569
		s9.134-10.568,12.329-10.568c3.199,0,2.016,6.896,2.016,10.568C166.254,310.378,167.438,317.271,164.238,317.271"/>
	<path fill="#C73636" d="M163.39,306.679l-7.293-0.462l6.093-5.383c-0.981-0.073-7.415,5.845-7.415,5.845s6.434,5.921,7.415,5.848
		l-6.093-5.382L163.39,306.679z"/>
	<path fill="#C73636" d="M143.324,319.249c0,2.745,4.968,1.732,7.615,1.732s7.616,1.013,7.616-1.732s-7.616-10.592-7.616-10.592
		S143.324,316.504,143.324,319.249 M140.903,320.666c0-3.365,10.036-12.982,10.036-12.982s10.035,9.617,10.035,12.982
		c0,3.369-6.547,2.121-10.035,2.121C147.45,322.787,140.903,324.035,140.903,320.666"/>
	<path fill="#C73636" d="M150.959,319.772l0.439-7.677l5.112,6.41c0.069-1.031-5.552-7.808-5.552-7.808s-5.622,6.776-5.553,7.808
		l5.112-6.41L150.959,319.772z"/>
	<path fill="#C73636" d="M139.023,298.639c-2.607,0-1.643,5.232-1.643,8.021c0,2.787-0.965,8.02,1.643,8.02s10.058-8.02,10.058-8.02
		S141.631,298.639,139.023,298.639 M137.679,296.09c3.195,0,12.33,10.569,12.33,10.569s-9.135,10.568-12.33,10.568
		c-3.198,0-2.015-6.892-2.015-10.568C135.664,302.986,134.48,296.09,137.679,296.09"/>
	<path fill="#C73636" d="M138.528,306.679l7.292,0.466l-6.094,5.382c0.982,0.073,7.417-5.848,7.417-5.848s-6.435-5.918-7.417-5.845
		l6.094,5.383L138.528,306.679z"/>
	<path fill="#C73636" d="M154.158,306.679c0,1.863-1.43,3.376-3.2,3.376c-1.769,0-3.2-1.513-3.2-3.376c0-1.86,1.432-3.369,3.2-3.369
		C152.729,303.31,154.158,304.818,154.158,306.679"/>
	<path fill="#C73636" d="M24.981,306.679c4.712,6.16,53.277-6.106,66.488-7.513c29.319-3.126,13.438,11.328,31.238,11.328
		 M122.708,302.866c-17.8,0-1.919,14.454-31.238,11.331c-13.211-1.412-61.776-13.676-66.488-7.519"/>
	<path fill="#C73636" d="M120.733,310.972c0,0,2.375,5.243,6.091,3.503c3.718-1.748,6.494-0.408,6.887,0.601
		C133.711,315.075,128.824,304.376,120.733,310.972"/>
	<path fill="#C73636" d="M120.733,302.393c0,0,2.375-5.247,6.091-3.503c3.718,1.744,6.494,0.4,6.887-0.604
		C133.711,298.285,128.824,308.984,120.733,302.393"/>
	<path fill="#C73636" d="M117.109,306.679H17.938 M63.329,306.679c0,0,46.201-11.093,46.201,0 M63.329,306.679
		c0,0,46.201,11.096,46.201,0"/>
</g>
<polygon fill="#C73636" points="15,306.679 20.437,311.056 19.112,306.679 20.437,302.305 "/>
<g>
	<path fill="#C73636" d="M276.977,306.679c-4.713,6.16-53.275-6.106-66.489-7.513c-29.319-3.126-13.438,11.328-31.237,11.328
		 M179.25,302.866c17.8,0,1.918,14.454,31.237,11.331c13.214-1.412,61.776-13.676,66.489-7.519"/>
	<path fill="#C73636" d="M181.226,310.972c0,0-2.378,5.243-6.091,3.503c-3.72-1.748-6.496-0.408-6.887,0.601
		C168.248,315.075,173.136,304.376,181.226,310.972"/>
	<path fill="#C73636" d="M181.226,302.393c0,0-2.378-5.247-6.091-3.503c-3.72,1.744-6.496,0.4-6.887-0.604
		C168.248,298.285,173.136,308.984,181.226,302.393"/>
	<path fill="#C73636" d="M184.849,306.679h99.17 M238.632,306.679c0,0-46.204-11.093-46.204,0 M238.632,306.679
		c0,0-46.204,11.096-46.204,0"/>
</g>
<polygon fill="#C73636" points="282.846,306.679 281.521,311.056 286.958,306.679 281.521,302.305 "/>
<g>
	<path fill="#C73636" d="M118.817,306.679c0,0.866-0.664,1.566-1.486,1.566s-1.487-0.7-1.487-1.566c0-0.863,0.665-1.563,1.487-1.563
		S118.817,305.815,118.817,306.679"/>
	<path fill="#C73636" d="M186.113,306.679c0,0.866-0.664,1.566-1.486,1.566s-1.486-0.7-1.486-1.566c0-0.863,0.664-1.563,1.486-1.563
		S186.113,305.815,186.113,306.679"/>
</g>
</svg>
